<svg xmlns="http://www.w3.org/2000/svg" xmlns:xlink="http://www.w3.org/1999/xlink" width="45" height="45" viewBox="0 0 45 45">
  <defs>
    <clipPath id="clip-path">
      <rect id="사각형_3" data-name="사각형 3" width="45" height="45" fill="#fff"/>
    </clipPath>
  </defs>
  <g id="Shape" clip-path="url(#clip-path)">
    <path id="패스_2" data-name="패스 2" d="M22.557,45a1.553,1.553,0,0,1-1.481-1.2,24.6,24.6,0,0,0-3.146-7,30.5,30.5,0,0,0-7.852-8.262,26.43,26.43,0,0,0-8.867-4.57A1.618,1.618,0,0,1,0,22.426a1.6,1.6,0,0,1,1.176-1.521,28.361,28.361,0,0,0,8.375-4.03,30.328,30.328,0,0,0,7.734-7.734,25.628,25.628,0,0,0,3.772-7.95,1.533,1.533,0,0,1,2.993.021A22.982,22.982,0,0,0,25.9,6.035a29.678,29.678,0,0,0,4.043,5.859,36.129,36.129,0,0,0,5.625,4.981,26.613,26.613,0,0,0,8.251,4.042A1.589,1.589,0,0,1,45,22.43a1.61,1.61,0,0,1-1.208,1.529,23.418,23.418,0,0,0-5.471,2.35,35.235,35.235,0,0,0-6.328,4.746,27.953,27.953,0,0,0-4.8,5.684,24.45,24.45,0,0,0-3.149,7.056A1.551,1.551,0,0,1,22.557,45Z"/>
  </g>
</svg>
