<svg xmlns="http://www.w3.org/2000/svg" width="12.5" height="9.5" viewBox="0 0 12.5 9.5"><g transform="translate(-1387.75 -745.75)"><path d="M11,.75H0A.75.75,0,0,1-.75,0,.75.75,0,0,1,0-.75H11a.75.75,0,0,1,.75.75A.75.75,0,0,1,11,.75Z" transform="translate(1388.5 750.5)"/><path d="M6,4.75a.746.746,0,0,1-.415-.126l-6-4A.75.75,0,0,1-.624-.416.75.75,0,0,1,.416-.624l6,4A.75.75,0,0,1,6,4.75Z" transform="translate(1393.5 746.5)"/><path d="M0,4.75a.749.749,0,0,1-.625-.334.75.75,0,0,1,.208-1.04l6-4a.75.75,0,0,1,1.04.208A.75.75,0,0,1,6.416.624l-6,4A.747.747,0,0,1,0,4.75Z" transform="translate(1393.5 750.5)"/></g></svg>